<mxGraphModel dx="728" dy="822" grid="1" gridSize="10" guides="1" tooltips="1" connect="1" arrows="1" fold="1" page="1" pageScale="1" pageWidth="827" pageHeight="1169" math="0" shadow="0"><root><mxCell id="WIyWlLk6GJQsqaUBKTNV-0"/><mxCell id="WIyWlLk6GJQsqaUBKTNV-1" parent="WIyWlLk6GJQsqaUBKTNV-0"/><mxCell id="uY7_5kEIzhUxcW6-rErh-62" style="edgeStyle=orthogonalEdgeStyle;rounded=0;orthogonalLoop=1;jettySize=auto;html=1;exitX=0;exitY=0.5;exitDx=0;exitDy=0;entryX=0.62;entryY=0;entryDx=0;entryDy=0;strokeColor=#6c8ebf;fillColor=#dae8fc;entryPerimeter=0;" parent="WIyWlLk6GJQsqaUBKTNV-1" source="uY7_5kEIzhUxcW6-rErh-1" target="uY7_5kEIzhUxcW6-rErh-56" edge="1"><mxGeometry relative="1" as="geometry"/></mxCell><mxCell id="uY7_5kEIzhUxcW6-rErh-1" value="peripherals" style="rounded=0;whiteSpace=wrap;html=1;fillColor=#dae8fc;strokeColor=#6c8ebf;" parent="WIyWlLk6GJQsqaUBKTNV-1" vertex="1"><mxGeometry x="550" y="175" width="100" height="40" as="geometry"/></mxCell><mxCell id="uY7_5kEIzhUxcW6-rErh-2" value="events" style="rounded=0;whiteSpace=wrap;html=1;fillColor=#ffe6cc;strokeColor=#d79b00;" parent="WIyWlLk6GJQsqaUBKTNV-1" vertex="1"><mxGeometry x="550" y="410" width="100" height="40" as="geometry"/></mxCell><mxCell id="uY7_5kEIzhUxcW6-rErh-10" style="edgeStyle=orthogonalEdgeStyle;rounded=0;orthogonalLoop=1;jettySize=auto;html=1;exitX=0.5;exitY=0;exitDx=0;exitDy=0;entryX=0.5;entryY=1;entryDx=0;entryDy=0;fillColor=#f8cecc;strokeColor=#b85450;" parent="WIyWlLk6GJQsqaUBKTNV-1" source="uY7_5kEIzhUxcW6-rErh-19" target="uY7_5kEIzhUxcW6-rErh-2" edge="1"><mxGeometry relative="1" as="geometry"/></mxCell><mxCell id="uY7_5kEIzhUxcW6-rErh-21" style="edgeStyle=orthogonalEdgeStyle;rounded=0;orthogonalLoop=1;jettySize=auto;html=1;exitX=0;exitY=0.5;exitDx=0;exitDy=0;entryX=0.5;entryY=1;entryDx=0;entryDy=0;strokeColor=#d6b656;fillColor=#fff2cc;" parent="WIyWlLk6GJQsqaUBKTNV-1" source="uY7_5kEIzhUxcW6-rErh-2" target="uY7_5kEIzhUxcW6-rErh-8" edge="1"><mxGeometry relative="1" as="geometry"/></mxCell><mxCell id="uY7_5kEIzhUxcW6-rErh-36" style="edgeStyle=orthogonalEdgeStyle;rounded=0;orthogonalLoop=1;jettySize=auto;html=1;exitX=1;exitY=1;exitDx=0;exitDy=0;entryX=0.5;entryY=0;entryDx=0;entryDy=0;strokeColor=#6c8ebf;fillColor=#dae8fc;" parent="WIyWlLk6GJQsqaUBKTNV-1" source="uY7_5kEIzhUxcW6-rErh-8" target="uY7_5kEIzhUxcW6-rErh-1" edge="1"><mxGeometry relative="1" as="geometry"/></mxCell><mxCell id="uY7_5kEIzhUxcW6-rErh-8" value="Events Library" style="rounded=0;whiteSpace=wrap;html=1;fillColor=#f8cecc;strokeColor=#b85450;" parent="WIyWlLk6GJQsqaUBKTNV-1" vertex="1"><mxGeometry x="402" y="90" width="100" height="40" as="geometry"/></mxCell><mxCell id="uY7_5kEIzhUxcW6-rErh-18" value="STM-274&lt;br&gt;(fix)" style="rounded=1;whiteSpace=wrap;html=1;fillColor=#f8cecc;strokeColor=#b85450;strokeWidth=2;" parent="WIyWlLk6GJQsqaUBKTNV-1" vertex="1"><mxGeometry x="740" y="470" width="60" height="30" as="geometry"/></mxCell><mxCell id="uY7_5kEIzhUxcW6-rErh-19" value="&lt;div&gt;eventsType&lt;/div&gt;&lt;div&gt;(MiXVision)&lt;/div&gt;" style="rounded=0;whiteSpace=wrap;html=1;fillColor=#ffe6cc;strokeColor=#d79b00;" parent="WIyWlLk6GJQsqaUBKTNV-1" vertex="1"><mxGeometry x="550" y="470" width="100" height="40" as="geometry"/></mxCell><mxCell id="uY7_5kEIzhUxcW6-rErh-20" style="edgeStyle=orthogonalEdgeStyle;rounded=0;orthogonalLoop=1;jettySize=auto;html=1;exitX=0;exitY=0.5;exitDx=0;exitDy=0;entryX=0.75;entryY=1;entryDx=0;entryDy=0;dashed=1;fillColor=#f8cecc;strokeColor=#b85450;" parent="WIyWlLk6GJQsqaUBKTNV-1" source="uY7_5kEIzhUxcW6-rErh-19" target="uY7_5kEIzhUxcW6-rErh-8" edge="1"><mxGeometry relative="1" as="geometry"><mxPoint x="348" y="200" as="sourcePoint"/><mxPoint x="498" y="130" as="targetPoint"/></mxGeometry></mxCell><mxCell id="uY7_5kEIzhUxcW6-rErh-23" style="edgeStyle=orthogonalEdgeStyle;rounded=0;orthogonalLoop=1;jettySize=auto;html=1;exitX=0.5;exitY=1;exitDx=0;exitDy=0;strokeColor=#000000;" parent="WIyWlLk6GJQsqaUBKTNV-1" edge="1"><mxGeometry relative="1" as="geometry"><mxPoint x="784.5" y="80" as="sourcePoint"/><mxPoint x="784.5" y="80" as="targetPoint"/></mxGeometry></mxCell><mxCell id="uY7_5kEIzhUxcW6-rErh-25" style="edgeStyle=orthogonalEdgeStyle;rounded=0;orthogonalLoop=1;jettySize=auto;html=1;exitX=0;exitY=0.5;exitDx=0;exitDy=0;entryX=1;entryY=0.5;entryDx=0;entryDy=0;strokeColor=#b85450;fillColor=#f8cecc;dashed=1;" parent="WIyWlLk6GJQsqaUBKTNV-1" source="uY7_5kEIzhUxcW6-rErh-8" target="uY7_5kEIzhUxcW6-rErh-24" edge="1"><mxGeometry relative="1" as="geometry"><mxPoint x="438" y="110" as="targetPoint"/></mxGeometry></mxCell><mxCell id="uY7_5kEIzhUxcW6-rErh-24" value="Events Template" style="rounded=0;whiteSpace=wrap;html=1;" parent="WIyWlLk6GJQsqaUBKTNV-1" vertex="1"><mxGeometry x="180" y="90" width="100" height="40" as="geometry"/></mxCell><mxCell id="uY7_5kEIzhUxcW6-rErh-30" value="edit name" style="rounded=1;whiteSpace=wrap;html=1;" parent="WIyWlLk6GJQsqaUBKTNV-1" vertex="1"><mxGeometry x="502" y="90" width="60" height="30" as="geometry"/></mxCell><mxCell id="uY7_5kEIzhUxcW6-rErh-35" value="Monitor / stop" style="rounded=1;whiteSpace=wrap;html=1;fillColor=#fff2cc;strokeColor=#d6b656;" parent="WIyWlLk6GJQsqaUBKTNV-1" vertex="1"><mxGeometry x="500" y="595" width="60" height="30" as="geometry"/></mxCell><mxCell id="uY7_5kEIzhUxcW6-rErh-95" style="edgeStyle=orthogonalEdgeStyle;rounded=0;orthogonalLoop=1;jettySize=auto;html=1;exitX=0.5;exitY=0;exitDx=0;exitDy=0;entryX=0.5;entryY=1;entryDx=0;entryDy=0;strokeColor=#000000;" parent="WIyWlLk6GJQsqaUBKTNV-1" source="uY7_5kEIzhUxcW6-rErh-37" target="uY7_5kEIzhUxcW6-rErh-1" edge="1"><mxGeometry relative="1" as="geometry"/></mxCell><mxCell id="uY7_5kEIzhUxcW6-rErh-37" value="peripheral type&lt;br&gt;(Standalone)" style="rounded=0;whiteSpace=wrap;html=1;fillColor=#dae8fc;strokeColor=#6c8ebf;" parent="WIyWlLk6GJQsqaUBKTNV-1" vertex="1"><mxGeometry x="550" y="230" width="100" height="40" as="geometry"/></mxCell><mxCell id="uY7_5kEIzhUxcW6-rErh-40" value="Mobile Device Template" style="rounded=0;whiteSpace=wrap;html=1;fillColor=#d5e8d4;strokeColor=#82b366;" parent="WIyWlLk6GJQsqaUBKTNV-1" vertex="1"><mxGeometry x="180" y="290" width="100" height="40" as="geometry"/></mxCell><mxCell id="uY7_5kEIzhUxcW6-rErh-63" style="edgeStyle=orthogonalEdgeStyle;rounded=0;orthogonalLoop=1;jettySize=auto;html=1;exitX=0;exitY=0.5;exitDx=0;exitDy=0;strokeColor=#82b366;fillColor=#d5e8d4;entryX=1;entryY=0.5;entryDx=0;entryDy=0;" parent="WIyWlLk6GJQsqaUBKTNV-1" source="uY7_5kEIzhUxcW6-rErh-41" target="uY7_5kEIzhUxcW6-rErh-40" edge="1"><mxGeometry relative="1" as="geometry"><mxPoint x="196" y="310" as="targetPoint"/><Array as="points"/></mxGeometry></mxCell><mxCell id="uY7_5kEIzhUxcW6-rErh-41" value="Lines" style="rounded=0;whiteSpace=wrap;html=1;fillColor=#e1d5e7;strokeColor=#9673a6;" parent="WIyWlLk6GJQsqaUBKTNV-1" vertex="1"><mxGeometry x="550" y="290" width="100" height="40" as="geometry"/></mxCell><mxCell id="uY7_5kEIzhUxcW6-rErh-43" style="edgeStyle=orthogonalEdgeStyle;rounded=0;orthogonalLoop=1;jettySize=auto;html=1;exitX=0.5;exitY=0;exitDx=0;exitDy=0;entryX=0.5;entryY=1;entryDx=0;entryDy=0;strokeColor=#9673a6;fillColor=#e1d5e7;" parent="WIyWlLk6GJQsqaUBKTNV-1" source="uY7_5kEIzhUxcW6-rErh-42" target="uY7_5kEIzhUxcW6-rErh-41" edge="1"><mxGeometry relative="1" as="geometry"/></mxCell><mxCell id="uY7_5kEIzhUxcW6-rErh-42" value="Standalone Peripheral Line" style="rounded=0;whiteSpace=wrap;html=1;fillColor=#e1d5e7;strokeColor=#9673a6;" parent="WIyWlLk6GJQsqaUBKTNV-1" vertex="1"><mxGeometry x="550" y="345" width="100" height="40" as="geometry"/></mxCell><mxCell id="uY7_5kEIzhUxcW6-rErh-44" value="Add" style="rounded=1;whiteSpace=wrap;html=1;fillColor=#e1d5e7;strokeColor=#9673a6;" parent="WIyWlLk6GJQsqaUBKTNV-1" vertex="1"><mxGeometry x="490" y="345" width="60" height="30" as="geometry"/></mxCell><mxCell id="uY7_5kEIzhUxcW6-rErh-50" value="not shown" style="rounded=1;whiteSpace=wrap;html=1;" parent="WIyWlLk6GJQsqaUBKTNV-1" vertex="1"><mxGeometry x="120" y="90" width="60" height="30" as="geometry"/></mxCell><mxCell id="uY7_5kEIzhUxcW6-rErh-52" value="edit monitored" style="rounded=1;whiteSpace=wrap;html=1;fillColor=#d5e8d4;strokeColor=#82b366;" parent="WIyWlLk6GJQsqaUBKTNV-1" vertex="1"><mxGeometry x="120" y="290" width="60" height="30" as="geometry"/></mxCell><mxCell id="uY7_5kEIzhUxcW6-rErh-58" style="edgeStyle=orthogonalEdgeStyle;rounded=0;orthogonalLoop=1;jettySize=auto;html=1;strokeColor=#82b366;fillColor=#d5e8d4;entryX=1;entryY=0.25;entryDx=0;entryDy=0;exitX=0.34;exitY=0;exitDx=0;exitDy=0;exitPerimeter=0;" parent="WIyWlLk6GJQsqaUBKTNV-1" source="uY7_5kEIzhUxcW6-rErh-56" target="uY7_5kEIzhUxcW6-rErh-40" edge="1"><mxGeometry relative="1" as="geometry"><mxPoint x="240" y="480" as="sourcePoint"/><mxPoint x="196" y="300" as="targetPoint"/><Array as="points"><mxPoint x="436" y="300"/></Array></mxGeometry></mxCell><mxCell id="uY7_5kEIzhUxcW6-rErh-56" value="Peripheral Library" style="rounded=0;whiteSpace=wrap;html=1;fillColor=#dae8fc;strokeColor=#6c8ebf;" parent="WIyWlLk6GJQsqaUBKTNV-1" vertex="1"><mxGeometry x="400" y="540" width="100" height="40" as="geometry"/></mxCell><mxCell id="uY7_5kEIzhUxcW6-rErh-59" value="peripheral made available" style="rounded=1;whiteSpace=wrap;html=1;fillColor=#d5e8d4;strokeColor=#82b366;" parent="WIyWlLk6GJQsqaUBKTNV-1" vertex="1"><mxGeometry x="300" y="290" width="60" height="40" as="geometry"/></mxCell><mxCell id="uY7_5kEIzhUxcW6-rErh-66" value="available for org?" style="rounded=1;whiteSpace=wrap;html=1;fillColor=#d5e8d4;strokeColor=#82b366;" parent="WIyWlLk6GJQsqaUBKTNV-1" vertex="1"><mxGeometry x="300" y="260" width="60" height="30" as="geometry"/></mxCell><mxCell id="uY7_5kEIzhUxcW6-rErh-67" value="" style="ellipse;whiteSpace=wrap;html=1;fillColor=#f8cecc;strokeColor=#b85450;" parent="WIyWlLk6GJQsqaUBKTNV-1" vertex="1"><mxGeometry x="350" y="250" width="10" height="10" as="geometry"/></mxCell><mxCell id="uY7_5kEIzhUxcW6-rErh-73" value="&lt;div&gt;STM-21 (events)&lt;br&gt;&lt;/div&gt;" style="rounded=1;whiteSpace=wrap;html=1;fillColor=#ffe6cc;strokeColor=#d79b00;strokeWidth=2;" parent="WIyWlLk6GJQsqaUBKTNV-1" vertex="1"><mxGeometry x="740" y="410" width="60" height="30" as="geometry"/></mxCell><mxCell id="uY7_5kEIzhUxcW6-rErh-74" value="" style="ellipse;whiteSpace=wrap;html=1;fillColor=#f8cecc;strokeColor=#b85450;" parent="WIyWlLk6GJQsqaUBKTNV-1" vertex="1"><mxGeometry x="120" y="280" width="10" height="10" as="geometry"/></mxCell><mxCell id="uY7_5kEIzhUxcW6-rErh-80" value="" style="ellipse;whiteSpace=wrap;html=1;fillColor=#f8cecc;strokeColor=#b85450;" parent="WIyWlLk6GJQsqaUBKTNV-1" vertex="1"><mxGeometry x="490" y="335" width="10" height="10" as="geometry"/></mxCell><mxCell id="uY7_5kEIzhUxcW6-rErh-96" style="edgeStyle=orthogonalEdgeStyle;rounded=0;orthogonalLoop=1;jettySize=auto;html=1;exitX=0.5;exitY=0;exitDx=0;exitDy=0;strokeColor=#d6b656;entryX=0.5;entryY=1;entryDx=0;entryDy=0;fillColor=#fff2cc;" parent="WIyWlLk6GJQsqaUBKTNV-1" source="uY7_5kEIzhUxcW6-rErh-81" target="uY7_5kEIzhUxcW6-rErh-56" edge="1"><mxGeometry relative="1" as="geometry"><mxPoint x="450" y="580" as="targetPoint"/></mxGeometry></mxCell><mxCell id="uY7_5kEIzhUxcW6-rErh-81" value="Events Page" style="rounded=0;whiteSpace=wrap;html=1;fillColor=#fff2cc;strokeColor=#d6b656;" parent="WIyWlLk6GJQsqaUBKTNV-1" vertex="1"><mxGeometry x="400" y="595" width="100" height="40" as="geometry"/></mxCell><mxCell id="uY7_5kEIzhUxcW6-rErh-83" value="" style="ellipse;whiteSpace=wrap;html=1;fillColor=#f8cecc;strokeColor=#b85450;" parent="WIyWlLk6GJQsqaUBKTNV-1" vertex="1"><mxGeometry x="552" y="80" width="10" height="10" as="geometry"/></mxCell><mxCell id="uY7_5kEIzhUxcW6-rErh-84" value="" style="ellipse;whiteSpace=wrap;html=1;fillColor=#f8cecc;strokeColor=#b85450;" parent="WIyWlLk6GJQsqaUBKTNV-1" vertex="1"><mxGeometry x="120" y="80" width="10" height="10" as="geometry"/></mxCell><mxCell id="uY7_5kEIzhUxcW6-rErh-88" value="&lt;div&gt;STM-275&lt;/div&gt;&lt;div&gt;(design)&lt;/div&gt;" style="rounded=1;whiteSpace=wrap;html=1;strokeWidth=2;fillColor=#FFFFCC;" parent="WIyWlLk6GJQsqaUBKTNV-1" vertex="1"><mxGeometry x="740" y="10" width="60" height="30" as="geometry"/></mxCell><mxCell id="uY7_5kEIzhUxcW6-rErh-89" value="STM-269&lt;br&gt;(line add)" style="rounded=1;whiteSpace=wrap;html=1;fillColor=#d5e8d4;strokeColor=#82b366;strokeWidth=2;" parent="WIyWlLk6GJQsqaUBKTNV-1" vertex="1"><mxGeometry x="740" y="280" width="60" height="30" as="geometry"/></mxCell><mxCell id="uY7_5kEIzhUxcW6-rErh-92" value="&lt;div&gt;STM-268&lt;/div&gt;&lt;div&gt;(add)&lt;/div&gt;" style="rounded=1;whiteSpace=wrap;html=1;fillColor=#dae8fc;strokeColor=#6c8ebf;strokeWidth=2;" parent="WIyWlLk6GJQsqaUBKTNV-1" vertex="1"><mxGeometry x="740" y="175" width="60" height="30" as="geometry"/></mxCell><mxCell id="uY7_5kEIzhUxcW6-rErh-93" value="&lt;div&gt;STM-280 (events)&lt;br&gt;&lt;/div&gt;" style="rounded=1;whiteSpace=wrap;html=1;fillColor=#fff2cc;strokeColor=#d6b656;strokeWidth=2;" parent="WIyWlLk6GJQsqaUBKTNV-1" vertex="1"><mxGeometry x="740" y="595" width="60" height="30" as="geometry"/></mxCell><mxCell id="-hokQsjcZcNhDed0WHvB-0" value="Design session for handling events on peripherals" style="rounded=0;whiteSpace=wrap;html=1;fontSize=14;fontStyle=1;strokeColor=#6c8ebf;fillColor=#FFFFCC;" parent="WIyWlLk6GJQsqaUBKTNV-1" vertex="1"><mxGeometry x="229" y="10" width="370" height="30" as="geometry"/></mxCell></root></mxGraphModel>